<svg width="30" height="27" viewBox="0 0 30 27" fill="none" xmlns="http://www.w3.org/2000/svg">
<path d="M26.5556 6.5L28.6464 4.40911C28.8417 4.21385 28.8417 3.89726 28.6464 3.702L26.298 1.35355C26.1027 1.15829 25.7862 1.15829 25.5909 1.35355L23.5 3.44444M26.5556 6.5L23.5 3.44444M26.5556 6.5L21.7346 11.3209C21.6904 11.3651 21.6335 11.3944 21.5718 11.4047L18.8286 11.8619C18.4225 11.9296 18.0704 11.5775 18.1381 11.1714L18.5953 8.42816C18.6056 8.36649 18.6349 8.30957 18.6791 8.26535L23.5 3.44444" stroke="white" stroke-width="1.7" stroke-linecap="round"/>
<path d="M25.5 15V18C25.5 20.7614 23.2614 23 20.5 23H7.80278C7.60535 23 7.41234 23.0584 7.24808 23.1679L4.19257 25.205C2.95551 26.0297 1.28303 25.2642 1.09862 23.7889L1 23V8C1 5.23858 3.23858 3 6 3H17" stroke="white" stroke-width="1.7" stroke-linecap="round"/>
<path d="M6.5 10H12.5" stroke="white" stroke-width="1.7" stroke-linecap="round"/>
<path d="M6 15H14.5" stroke="white" stroke-width="1.7" stroke-linecap="round"/>
</svg>
