<svg width="26" height="26" viewBox="0 0 26 26" fill="none" xmlns="http://www.w3.org/2000/svg">
<path d="M2.16663 5.41667C2.16663 4.84203 2.3949 4.29093 2.80123 3.8846C3.20756 3.47827 3.75866 3.25 4.33329 3.25H10.8333V22.75H4.33329C3.75866 22.75 3.20756 22.5217 2.80123 22.1154C2.3949 21.7091 2.16663 21.158 2.16663 20.5833V5.41667ZM15.1666 3.25H21.6666C22.2413 3.25 22.7924 3.47827 23.1987 3.8846C23.605 4.29093 23.8333 4.84203 23.8333 5.41667V10.8333H15.1666V3.25ZM15.1666 15.1667H23.8333V20.5833C23.8333 21.158 23.605 21.7091 23.1987 22.1154C22.7924 22.5217 22.2413 22.75 21.6666 22.75H15.1666V15.1667Z" stroke="white" stroke-width="1.7" stroke-linecap="round" stroke-linejoin="round"/>
</svg>
