<svg width="23" height="26" viewBox="0 0 23 26" fill="none" xmlns="http://www.w3.org/2000/svg">
<path d="M21.9545 0H4.18182C3.07273 0 2.00907 0.421427 1.22483 1.17157C0.440583 1.92172 0 2.93913 0 4V25C0 25.2652 0.110146 25.5196 0.306207 25.7071C0.502267 25.8946 0.768183 26 1.04545 26H19.8636C20.1409 26 20.4068 25.8946 20.6029 25.7071C20.7989 25.5196 20.9091 25.2652 20.9091 25C20.9091 24.7348 20.7989 24.4804 20.6029 24.2929C20.4068 24.1054 20.1409 24 19.8636 24H2.09091C2.09091 23.4696 2.3112 22.9609 2.70332 22.5858C3.09544 22.2107 3.62727 22 4.18182 22H21.9545C22.2318 22 22.4977 21.8946 22.6938 21.7071C22.8899 21.5196 23 21.2652 23 21V1C23 0.734784 22.8899 0.48043 22.6938 0.292893C22.4977 0.105357 22.2318 0 21.9545 0ZM20.9091 20H4.18182C3.44758 19.999 2.72616 20.1841 2.09091 20.5362V4C2.09091 3.46957 2.3112 2.96086 2.70332 2.58579C3.09544 2.21071 3.62727 2 4.18182 2H20.9091V20Z" fill="white"/>
<path d="M6 6H13.5" stroke="white" stroke-width="1.7" stroke-linecap="round"/>
<path d="M6 10H15" stroke="white" stroke-width="1.7" stroke-linecap="round"/>
</svg>
