<svg width="51" height="51" viewBox="0 0 51 51" fill="none" xmlns="http://www.w3.org/2000/svg">
<circle cx="25.5" cy="25.5" r="25.5" fill="#9966CD"/>
<circle cx="25" cy="26" r="19" fill="#FFCE00"/>
<path d="M44.2283 27.2287C44.2283 16 35.9999 7 24.9999 7L24.9999 44.9999C35.5 44.4999 43.5263 37.6986 44.2283 27.2287Z" fill="#FFB600"/>
<path d="M14 22H22.5" stroke="#636978" stroke-width="3.5"/>
<path d="M29 22H37.5" stroke="#414952" stroke-width="3.5"/>
<path d="M16 23.7499H21V44.5668L20.3412 44.4423C18.7952 44.1502 17.3207 43.5602 16 42.705V23.7499Z" fill="#6FBAFF"/>
<path d="M36 23.4026H31V44L32.5 43.5C33.4959 43.168 34.4452 42.7099 35.3247 42.1368L36 41.6967V23.4026Z" fill="#6FBAFF"/>
<circle cx="25.5" cy="34.5" r="3.5" fill="#636978"/>
<path d="M29 34.5C29 36.433 27.433 38 25.5 38C23.567 38 22 36.433 22 34.5C22 32.567 23.567 31 25.5 31C27.433 31 29 32.567 29 34.5Z" fill="#636978"/>
</svg>
