<?xml version="1.0" encoding="UTF-8"?>
<svg id="Layer_1" data-name="Layer 1" xmlns="http://www.w3.org/2000/svg" viewBox="0 0 57.12 66.44">
  <defs>
    <style>
      .cls-1 {
        fill: #9b9c82;
        stroke-width: 0px;
      }
    </style>
  </defs>
  <path class="cls-1" d="M6.89,66.44h13.17s5.96-10.98,20.39-18.51c14.43-7.53,16-16.61,16.62-20.85.63-4.24-5.65-2.05-15.06,3.6-9.41,5.65-11.92,19.01-16,18.76-4.08-.25-1.57-15.62,7.21-20.64,8.78-5.02,15.68-17.25,17.88-25.09s-15.68-2.2-24.15,7.21c-8.47,9.41-7.21,32.39-13.49,35.33-6.27,2.94,4.7-16.35-8-24.22C.39,18.87-.95,27.9.62,39.33c1.57,11.43,9.41,16.76,6.27,27.11Z"/>
</svg>