<?xml version="1.0" encoding="UTF-8"?>
<svg id="Layer_1" data-name="Layer 1" xmlns="http://www.w3.org/2000/svg" viewBox="0 0 137.02 135.27">
  <defs>
    <style>
      .cls-1 {
        fill: #d6c894;
      }

      .cls-1, .cls-2 {
        stroke-width: 0px;
      }

      .cls-2 {
        fill: #fffbf4;
      }
    </style>
  </defs>
  <path class="cls-1" d="M8.53,98.42s14.12,9.06,43.15,14.12c29.04,5.06,41.29-3.2,42.89-7.06,1.6-3.86-3.2-5.99-22.11-9.46-18.91-3.46-23.97-7.72-14.65-8.79,9.32-1.07,22.38,7.19,33.56,7.19s18.91-5.95,19.18-10.03c.27-4.08-33.56-5.15-37.83-11.01-4.26-5.86,21.93.27,33.21,1.86,11.28,1.6,15.81-7.19,15.01-10.12-.8-2.93-28.24-3.88-30.9-7.93s11.45-2.61,23.71,0,18.38-6.45,16.78-8.58c-1.6-2.13-24.24-3.73-26.64-7.73s12.25-2.93,19.71-1.33c7.46,1.6,15.45-5.59,12.79-7.99-2.66-2.4-19.45-3.2-19.98-6.66-.53-3.46,22.36-1.6,20.5-6.66-1.86-5.06-8.25-9.8-18.1-9.96-9.86-.16-18.91,10.23-24.24,7.03-5.33-3.2,13.05-10.92,8.26-13.85s-15.45-1.33-19.18,3.73c-3.73,5.06-4,13.59-7.99,13.32-4-.27,2.93-12.25-.53-14.92-3.46-2.66-12.52,2.93-14.38,8.26-1.86,5.33.27,15.98-3.46,16.52-3.73.53.9-17.05-2.35-18.65-3.25-1.6-13.63,8.79-13.9,15.18s3.2,16.46-2.4,18.09c-5.59,1.62-4.53-18.35-8.79-20.22-4.26-1.86-12.79,10.35-11.45,20.36,1.33,10.01,4.26,18.19.27,18.23-4,.03-6.93-12.75-10.12-14.88-3.2-2.13-6.08,3.2-6.9,16.78-.82,13.59,5.58,31.83,6.9,35.16Z"/>
  <path class="cls-2" d="M3.97,120.31s14.96-38.38,32.37-59.65c17.41-21.27,51-34.09,67.18-35.01,0,0-38.29,7.12-62.91,37.56C16,93.64,6.72,135.27,6.72,135.27l-6.72-1.32,3.97-13.64Z"/>
</svg>