<?xml version="1.0" encoding="UTF-8"?>
<svg id="Layer_1" data-name="Layer 1" xmlns="http://www.w3.org/2000/svg" viewBox="0 0 64.28 110.57">
  <defs>
    <style>
      .cls-1 {
        fill: #b9bd7b;
        stroke-width: 0px;
      }
    </style>
  </defs>
  <path class="cls-1" d="M59.83,110.04c-.61-3.02-1.54-6.42-2.7-10.06,1.9-3.69,7.28-15.4,7.15-29.58-.16-17.21-12.08-35.25-12.08-35.25,0,0-3.13,29.44,2.06,56.52-3.59-9.69-8.2-20.2-12.46-29.39,1.81-3.8,5.08-11.98,5.05-21.68-.03-13.41-9.24-27.54-9.24-27.54,0,0-2.47,21.85,1.04,42.55-3.14-6.58-5.86-11.98-7.5-15.2-.29-4.54-1.41-12.5-5.54-20.31C19.35,8.23,4.63,0,4.63,0c0,0,9.27,23.83,23.78,41.03,1.31,2.58,3.52,6.97,6.16,12.43-2.02-2.96-4.59-6.1-7.83-8.96C16.68,35.63,0,33.15,0,33.15c0,0,18.96,21.04,39.9,31.58,2.18,4.72,4.42,9.74,6.56,14.8-2.42-3.29-5.39-6.69-8.97-9.81C24.5,58.43,3.09,55.39,3.09,55.39c0,0,23.19,25.41,49.27,39.07,2.16,5.96,3.88,11.52,4.8,16.11l2.66-.54Z"/>
</svg>