<?xml version="1.0" encoding="UTF-8"?>
<svg id="Layer_1" data-name="Layer 1" xmlns="http://www.w3.org/2000/svg" viewBox="0 0 211.37 164.58">
  <defs>
    <style>
      .cls-1 {
        fill: #9b9c82;
      }

      .cls-1, .cls-2, .cls-3, .cls-4 {
        stroke-width: 0px;
      }

      .cls-2 {
        fill: #d5c392;
      }

      .cls-3 {
        fill: #b9bd7b;
      }

      .cls-4 {
        fill: #fffbf4;
      }
    </style>
  </defs>
  <g>
    <path class="cls-3" d="M133.04,115.44c-.91-16.24-17.93-19.5-19.63-23.54-1.7-4.04-4.45-12.31-16.7-16.2-12.25-3.9-19.88,3.31-26.74-1.11-6.87-4.41-12.98-8.06-21.16-2.51-8.18,5.55-13.98,3.51-25.8,2.17-11.81-1.34-21.2,10.06-21.2,10.06-4.62,4.24-.16,9.61,10.73,12.24,15.38,3.72,10.99,13.71,19.19,17.76,8.2,4.05,17.95.04,24.12,4.94,6.18,4.9,5.71,13.79,13.36,15.87,7.65,2.09,16.67-2.99,21.05.01,4.38,3.01,6.76,11.91,11.98,14.99,5.22,3.08,20,3.84,20,3.84l3.57-.86s8.13-21.41,7.22-37.65Z"/>
    <path class="cls-4" d="M123.39,147.98s-3.86-33.15-26.65-48.24c-22.8-15.1-60.18-15.46-71.51-16.08l-11.33-.63s45.75-2.91,68.43,6.32c31.15,12.67,40.03,33.37,41.06,58.64Z"/>
    <path class="cls-2" d="M106.67,113.09s-19.06-17.03-21.93-31.2,5.55-19.47-.12-26.64c-5.67-7.18-3.14-20.05,2.97-23.32,6.11-3.27,8.61-10.4,9.2-20.26S104.9-1.86,107.23.88c6.41,7.53,3.22,15.23,13.03,20.02,9.81,4.79,13.28,14.71,10.82,22.84-2.46,8.12,8.35,10.72,15.51,23.12s1.97,22.77-1.06,30.55c-3.04,7.78,5.38,17.15,2.32,26.12-3.06,8.97-24.15,23.73-24.15,23.73,0,0-10.2-3.77-17.03-34.15Z"/>
    <path class="cls-4" d="M106.47,14.6s6.29,24.27,13.87,55.56c7.58,31.29,8.86,69.88,8.86,69.88,0,0,4.39-28.01-1.3-54.29-5.69-26.28-20.95-67.1-21.43-71.15Z"/>
    <path class="cls-3" d="M109.22,125.76c-2.6-13.33,10.51-19.47,11.06-23.09.55-3.62,1.07-10.88,10.19-16.55,9.12-5.67,16.77-1.41,21.43-6.39,4.65-4.98,8.85-9.19,16.62-6.38,7.77,2.81,12.04-.03,21.33-3.54,9.29-3.51,19.23,3.79,19.23,3.79,4.61,2.48,2.11,7.74-6.17,12.11-11.69,6.17-6.08,13.36-11.89,18.32-5.81,4.96-14.52,3.72-18.52,8.95-4,5.24-1.79,12.34-7.56,15.6-5.76,3.26-14.11,1-17.04,4.33-2.93,3.33-3.03,11.03-6.62,14.6-3.6,3.56-15.41,7.22-15.41,7.22l-3.07.03s-10.98-15.66-13.58-29Z"/>
    <path class="cls-4" d="M123.72,150.12s-3.69-27.63,11.67-44.54c15.36-16.91,45.55-24.88,54.6-27.71l9.05-2.83s-37.64,7.04-54.11,19.17c-22.62,16.66-25.56,35.24-21.2,55.91Z"/>
  </g>
  <path class="cls-1" d="M114.7,150.07s-25.11-6.88-38.3-.84c-13.19,6.03-15.62,14.32-15.62,14.32,0,0,5.65,1.98,16.39.47,10.74-1.5,12.35-7.87,19.84-4.84s9.95,5.94,16.25,4.13c6.3-1.81,9.54-8.56,9.54-8.56l-8.1-4.68Z"/>
  <path class="cls-1" d="M127.07,150.97s6.75-7.78,16.55-7.27c9.8.52,11.52,3.93,16.31,4.15,4.8.22,7.45-1.3,14,.94,6.48,2.21,10.32,5.25,10.32,5.25,0,0-6.66,9.64-17.03,7.14-10.37-2.5-18.21-4.11-21.61-.63-3.39,3.47-24.7-2.86-24.7-2.86l6.15-6.73Z"/>
</svg>