<?xml version="1.0" encoding="UTF-8"?>
<svg id="Layer_1" data-name="Layer 1" xmlns="http://www.w3.org/2000/svg" viewBox="0 0 21.54 22.52">
  <defs>
    <style>
      .cls-1 {
        fill: #eea392;
        stroke-width: 0px;
      }
    </style>
  </defs>
  <path class="cls-1" d="M19.87,11.22c-1.96-1.14-4.54-.32-4.96-.95s2.11-2.61,2.93-4.69c.82-2.07-.1-7.44-3.44-4.91-3.34,2.53-3.49,6.84-3.49,6.84,0,0-.05.24-.1.63-1.13-2.67-.52-6.34-.52-6.39.03-.2-.1-.39-.3-.43-.21-.03-.39.1-.42.3-.03.16-.51,3.1.21,5.76-1.76-2.02-4.31-3.25-4.45-3.32-.18-.09-.4,0-.49.18-.09.18,0,.4.18.49.04.02,3.68,1.77,5.1,4.4-.44-.32-.75-.48-.75-.48,0,0-3.36-2.7-7.45-1.82-4.09.88-.63,5.08,1.47,5.82,2.1.74,5.25.11,5.46.84.21.74-2.1,2.15-2.52,4.38-.42,2.23,2.2,4.55,3.67,4.65,1.33.09,3.35-4.38,3.32-7.72,2.58,2.03,6.91,3.26,7.67,2.24.88-1.18.84-4.68-1.12-5.82Z"/>
</svg>