<?xml version="1.0" encoding="UTF-8"?>
<svg id="Layer_1" data-name="Layer 1" xmlns="http://www.w3.org/2000/svg" xmlns:xlink="http://www.w3.org/1999/xlink" viewBox="0 0 896.26 1214.93">
  <defs>
    <style>
      .cls-1 {
        fill: #699188;
      }

      .cls-1, .cls-2, .cls-3, .cls-4, .cls-5, .cls-6, .cls-7, .cls-8, .cls-9, .cls-10, .cls-11, .cls-12, .cls-13, .cls-14, .cls-15, .cls-16, .cls-17, .cls-18, .cls-19, .cls-20 {
        stroke-width: 0px;
      }

      .cls-2 {
        fill: url(#linear-gradient);
      }

      .cls-3 {
        fill: #d9ebff;
      }

      .cls-4 {
        fill: #053818;
      }

      .cls-5 {
        fill: #4b93d6;
      }

      .cls-6 {
        fill: #073f1c;
      }

      .cls-7 {
        fill: #022d12;
      }

      .cls-8, .cls-21 {
        fill: #000;
      }

      .cls-9 {
        fill: #ffab96;
      }

      .cls-22 {
        stroke-width: 2.5px;
      }

      .cls-22, .cls-21, .cls-23 {
        stroke: #000;
      }

      .cls-22, .cls-23 {
        fill: none;
        stroke-linecap: round;
      }

      .cls-10 {
        fill: #cce6ff;
      }

      .cls-11, .cls-24 {
        fill: #f9b7a7;
      }

      .cls-12 {
        fill: #d2e6ff;
      }

      .cls-13 {
        fill: #e1eeff;
      }

      .cls-14 {
        fill: #c0d6f1;
      }

      .cls-15 {
        fill: #f37b6d;
      }

      .cls-16 {
        fill: url(#linear-gradient-4);
      }

      .cls-17 {
        fill: url(#linear-gradient-2);
      }

      .cls-18 {
        fill: url(#linear-gradient-3);
      }

      .cls-19 {
        fill: #2a4e70;
      }

      .cls-23 {
        stroke-width: 2.3px;
      }

      .cls-20 {
        fill: #f1f1f1;
      }

      .cls-24 {
        stroke: #f9b7a7;
      }
    </style>
    <linearGradient id="linear-gradient" x1="666.35" y1="290.81" x2="666.35" y2="88.81" gradientTransform="translate(-8.36 820.83) scale(1 -1)" gradientUnits="userSpaceOnUse">
      <stop offset="0" stop-color="#7bb7ef"/>
      <stop offset="1" stop-color="#3481ca"/>
    </linearGradient>
    <linearGradient id="linear-gradient-2" x1="243.85" x2="243.85" xlink:href="#linear-gradient"/>
    <linearGradient id="linear-gradient-3" x1="531.85" y1="524.81" x2="531.85" y2="396.81" gradientTransform="translate(-8.36 820.83) scale(1 -1)" gradientUnits="userSpaceOnUse">
      <stop offset="0" stop-color="#c2e9ff"/>
      <stop offset="1" stop-color="#88c6e9"/>
    </linearGradient>
    <linearGradient id="linear-gradient-4" x1="372.37" y1="417.69" x2="345.13" y2="292.6" xlink:href="#linear-gradient-3"/>
  </defs>
  <path class="cls-3" d="M895.48,1215.03V4.03H-.52v1211h896Z"/>
  <circle class="cls-10" cx="447.97" cy="561.51" r="339.48"/>
  <circle class="cls-12" cx="447.97" cy="564.52" r="246.15"/>
  <circle class="cls-13" cx="447.97" cy="561.51" r="169.37"/>
  <circle class="cls-20" cx="447.97" cy="561.51" r="92.59"/>
  <path class="cls-19" d="M360.87,657.61c9.74,4.18,18.9-6.15,22.27-11.83l17.05-36.18,4.52,58.79,96.72-2.09,3.83-49.05c6.03,12.06,19.13,37.02,23.31,40.36,4.18,3.34,15.42,1.39,20.53,0l42.44-27.83-19.83-36.18-22.61,13.22c-7.31-16.58-23.1-52.05-27.83-61.23-4.73-9.18-17.05-10.32-22.61-9.74h-77.23c-4.41-.12-15.17-.28-22.96,0-7.79.28-13.45,6.61-15.31,9.74l-29.57,61.23-21.92-13.22-21.57,36.18c12.87,7.54,41.05,23.66,50.79,27.83Z"/>
  <path class="cls-11" d="M511.18,760.54l-23.66-10.09,9.39-24c12.29,5.22,40.98,18.99,44.88,24,4.87,6.26,1.39,19.83-7.65,26.09-5.2,3.6-10.66,15.69-13.83,26.47-1.67,5.68-8.19,8.87-10.92,3.61-6.36-12.25-2.08-33.75,1.79-46.09Z"/>
  <path class="cls-15" d="M511.53,760.89l-23.66-10.44,2.09-6.61c9.74,3.13,29.29,10.51,29.57,14.96.28,4.45-8,14.15-12.18,18.44,0-3.9,2.78-12.52,4.17-16.35Z"/>
  <path class="cls-11" d="M358.54,753.97l24.14-10.09-9.58-24.01c-12.54,5.22-41.82,18.99-45.8,24.01-4.97,6.26-1.42,19.83,7.81,26.09,5.19,3.52,11.17,12.93,14.75,22.2,2.12,5.49,8.78,8.87,11.58,3.7,6-11.06,1.02-29.65-2.9-41.9Z"/>
  <path class="cls-15" d="M358.18,754.32l24.14-10.44-2.13-6.61c-9.94,3.13-29.89,10.51-30.18,14.96s8.17,14.15,12.42,18.44c0-3.9-2.84-12.52-4.26-16.35Z"/>
  <path class="cls-4" d="M405.65,693.53l-.83-23.57c-.06-1.7,1.3-3.11,3-3.11h92.16c1.85,0,3.26,1.66,2.96,3.49l-3.88,23.57c-.24,1.45-1.49,2.51-2.96,2.51h-87.45c-1.62,0-2.94-1.28-3-2.89Z"/>
  <path class="cls-6" d="M382.99,757.57l151.42-44.86c24.21-8.08,25.16-30.24,22.62-40.31-12.89-28.85-38.71-24.46-50-18.66l-141.47,60.85,17.43,42.99Z"/>
  <path class="cls-1" d="M505.29,721.38l-140.55-72.02c-23.1-10.86-39.08,4.52-44.18,13.57-10.58,29.78,11.13,44.41,23.31,48.01l144.38,53.58,17.05-43.14Z"/>
  <path class="cls-24" d="M431.49,535.85v-21.03h39.6v21.03h10.15c-1.35,8.06-9.27,24.32-30.13,24.88-20.85.56-30.35-16.35-32.5-24.88h12.86Z"/>
  <path class="cls-15" d="M471.16,509.25h-40.01v8.35c1.86,4.52,8.28,13.43,19.13,12.87,10.86-.56,18.44-6.26,20.87-9.05v-12.18Z"/>
  <path class="cls-11" d="M480.42,491.19c-2.23,11.69-6.73,18.79-8.7,20.87-8.07,10.02-19.37,11.36-24.01,10.79-19.2-3.9-25.63-22.73-26.44-31.66-4.87-1.04-1.04-4.2,0-8.38.84-3.34-2.32-6.82-.7-6.58,2.23-22.82,19.02-29.22,27.14-29.57,27.83-.84,33.4,19.37,32.7,29.57,4.18-.28-3.35,5.31-3,6.58.84,8.91,5.44,8.26,3,8.38Z"/>
  <path class="cls-21" d="M427.9,485.76c0,6.12-3.71,8.12-5.57,8.35-1.18-.18-3.61-2.72-3.94-11.48l-.58-15.31c-10.02-1.11-10.9-11.6-10.09-16.7,3.34-15.31,17.39-14.03,24.01-11.48,13.92,9.74,20.18,2.09,32.7,3.48,10.02,1.11,15.54,9.51,17.05,13.57v37.92c-5.29,2.23-7.31-1.86-7.65-4.18v-21.22c0-5.29-1.86-5.45-2.78-4.87-14.96,6.96-29.92,3.13-34.44,0-3.62-2.51-7.31-.35-8.7,1.04v20.88Z"/>
  <path class="cls-24" d="M486.12,487.41c.28-7.79-5.92-7.19-9.05-5.91v14.96c2.9.23,8.77-1.25,9.05-9.05Z"/>
  <path class="cls-24" d="M414.46,487.51c-.26-7.92,5.45-7.31,8.34-6.01v15.2c-2.67.24-8.08-1.27-8.34-9.19Z"/>
  <path class="cls-22" d="M432.19,478.09c1.97-1.16,7.31-2.78,12.87,0"/>
  <path class="cls-22" d="M456.2,478.58c1.97-1.16,7.31-2.78,12.87,0"/>
  <path class="cls-23" d="M431.22,486.87c2.78,1.23,8.96,2.59,11.46-1.8"/>
  <path class="cls-23" d="M468.38,487.48c-2.09,1.04-8,2.09-11.83-2.78"/>
  <path class="cls-23" d="M456.49,509.25c-2.09,1.04-8,2.09-11.83-2.78"/>
  <path class="cls-15" d="M447.35,497.29l1.5-9.71c.11-.74.75-1.28,1.49-1.28s1.34.5,1.48,1.21l2,9.71c.18.87-.03,1.77-.58,2.46l-.26.33c-1.2,1.52-3.51,1.52-4.71,0l-.32-.4c-.52-.65-.74-1.49-.61-2.32Z"/>
  <circle class="cls-9" cx="463.51" cy="497.77" r="5.22"/>
  <circle class="cls-9" cx="436.37" cy="497.77" r="5.22"/>
  <path class="cls-6" d="M494.12,748.61l-141.94-34.79,135.68,51.49,6.26-16.7Z"/>
  <path class="cls-7" d="M397.06,730.87l-21.57,8.35,7.31,18.44,48.01-14.26-33.75-12.52Z"/>
  <path class="cls-7" d="M533.78,712.78l-37.57,3.83,8.7,4.87,28.88-8.7Z"/>
  <path class="cls-8" d="M407.15,589.62l-6.96,20.53,1.74,18.44c14.61-10.44,10.09-29.46,5.22-38.96Z"/>
  <path class="cls-8" d="M497.6,596.92l8,18.44-1.74,18.44c-13.57-8.7-12.37-27.37-6.26-36.88Z"/>
  <path class="cls-11" d="M585.62,618.62l-9.04-15.66c5.22-3.94,16.91-12.59,21.92-15.66,6.26-3.83,5.57-2.78,13.92-2.78,6.68,0,9.04,2.09,9.39,3.13.7,4.52-5.22,4.17-9.39,3.48-3.34-.56-5.1.93-5.57,1.74-1.39,1.62-2.43,5.64,4.52,8.7,8.7,3.83,11.83-2.09,14.26-3.83,2.43-1.74-3.83-4.87-3.83-5.91s3.13-2.78,9.39,1.04c5.01,3.06.93,7.31-1.74,9.04,3.36-.58,10.99-1.67,14.61-1.39,4.52.35,2.43,4.87,3.13,4.87s7.31,3.48,5.22,6.61c-2.09,3.13-44.88,2.44-54.62,1.74-7.79-.56-11.36,3.01-12.18,4.87Z"/>
  <path class="cls-11" d="M315.78,618.49l8.92-15.6c-5.14-3.93-16.66-12.55-21.6-15.6-6.17-3.81-5.49-2.77-13.71-2.77-6.58,0-8.92,2.08-9.26,3.12-.69,4.51,5.14,4.16,9.26,3.47,3.29-.55,5.03.92,5.49,1.73,1.37,1.62,2.4,5.61-4.46,8.66-8.57,3.81-11.66-2.08-14.06-3.81-2.4-1.73,3.77-4.85,3.77-5.89s-3.09-2.77-9.26,1.04c-4.94,3.05-.91,7.28,1.71,9.01-3.32-.58-10.84-1.66-14.4-1.39-4.46.35-2.4,4.85-3.09,4.85s-7.2,3.47-5.14,6.59c2.06,3.12,44.23,2.43,53.83,1.73,7.68-.55,11.2,3,12,4.85Z"/>
  <ellipse class="cls-14" cx="451.48" cy="935.53" rx="131" ry="23.5"/>
  <path class="cls-2" d="M675.21,649.19c-12.72,46.21-71.12,74.48-98.73,82.83,99.03-7.34,143.76-58.28,153.75-82.83,22.74-51.35-1.73-94.75-16.81-110.04-10.9-7.64-36.01-17.61-49.21,3.67-16.51,26.59,26.9,48.6,11,106.37Z"/>
  <path class="cls-17" d="M221.11,649.19c10.61,46.21,59.34,74.48,82.37,82.83-82.63-7.34-119.95-58.28-128.28-82.83-18.97-51.35,1.45-94.75,14.03-110.04,9.1-7.64,30.04-17.61,41.06,3.67,13.77,26.59-22.44,48.6-9.18,106.37Z"/>
  <path class="cls-18" d="M499.62,355.04c10.51,33.38-4.38,59.9-13.14,68.99,26.93-9.95,43.94-22.85,59.77-40.17,17.41-19.05,18.72-56.17,4.6-73.91-14.12-17.74-41.05-15.44-51.24-9.85-10.18,5.58-10.51,21.58,0,54.96Z"/>
  <path class="cls-16" d="M375.5,466.05c-17.69,30.31-8.34,59.49-1.45,70.3-25.02-15.63-39.42-31.97-51.68-52.38-13.48-22.44-6.91-59,11.1-73.24,18.01-14.24,44.66-6.08,53.73,1.61,9.07,7.69,6,23.39-11.7,53.7Z"/>
  <path class="cls-5" d="M528.48,455.03c-12.4,26-11,53.33-8,60.5,17-29,20-27.5,38-43,16.29-14.03,9-27.67,4-32-6.17-6-21.6-11.5-34,14.5Z"/>
  <path class="cls-5" d="M281.78,503.18c9.71,28.35,34.23,32.69,39.2,35.35-9.5-11.5-18.02-17.5-18.02-37.75,0-13.93-11.02-18.35-15.29-18.71-5.62-.79-11.07,5.96-5.89,21.11Z"/>
</svg>